<svg viewBox="71.3 70.92 685.02 148.02" xmlns="http://www.w3.org/2000/svg" xmlns:xlink="http://www.w3.org/1999/xlink"><clipPath id="a"><path d="m3117.69 896.5h671.43v134.5h-671.43z"/></clipPath><linearGradient id="b" gradientTransform="matrix(-5016.05 0 0 5016.05 5670.23 963.75)" gradientUnits="userSpaceOnUse" spreadMethod="pad" x1="0" x2="1" y1="0" y2="0"><stop offset="0" stop-color="#004c73"/><stop offset="1" stop-color="#7fcc28"/></linearGradient><clipPath id="c"><path d="m2497.81 896.5h591.91v134.5h-591.91z"/></clipPath><clipPath id="d"><path d="m1990.21 896.5h479.63v134.5h-479.63z"/></clipPath><clipPath id="e"><path d="m1099 896.5h400.09v134.5h-400.09z"/></clipPath><clipPath id="f"><path d="m534.848 896.5h536.182v134.5h-536.182z"/></clipPath><clipPath id="g"><path d="m1527.06 896.5h435.18v134.5h-435.18z"/></clipPath><clipPath id="h"><path d="m3817.09 896.5h701.85v134.5h-701.85z"/></clipPath><clipPath id="i"><path d="m4546.91 896.5h795.41v134.5h-795.41z"/></clipPath><clipPath id="j"><path d="m5370.29 1031v-134.5h300.67v134.5z"/></clipPath><g transform="matrix(.13333333 0 0 -.13333333 0 289.84)"><g fill="#80cc28"><path d="m584.211 1406.76h120.605c70.75 0 102.418 36.38 102.418 93.65 0 59.97-40.429 92.98-99.718 92.98h-123.305zm-48.512 228.41h173.16c88.266 0 148.907-49.19 148.907-133.41 0-88.26-61.989-137.45-153.621-137.45h-119.934v-199.44h-48.512z"/><path d="m960.664 1402.04c0-105.11 56.596-201.46 163.726-201.46 115.89 0 163.73 95 163.73 201.46 0 105.78-53.9 197.42-163.05 197.42-113.87 0-164.406-93.66-164.406-197.42zm378.666 1.35c0-129.37-70.75-245.26-216.96-245.26-135.429 0-212.241 107.13-212.241 241.89 0 134.08 76.137 241.89 216.961 241.89 130.71 0 212.24-100.39 212.24-238.52"/><path d="m1494.63 1164.87-128.69 470.3h50.53c33.69-131.39 95.68-361.82 105.78-416.4h.68c10.1 51.21 82.2 293.77 113.87 416.4h49.18c29.65-110.5 100.4-369.91 109.16-415.05h.67c14.82 73.44 87.59 309.94 117.24 415.05h47.83l-140.82-470.3h-53.22c-29.65 109.83-97.03 360.47-106.46 407.63h-.67c-13.48-65.35-80.18-294.44-112.53-407.63z"/><path d="m2311.12 1391.26h-237.17v-183.94h260.07l-6.73-42.45h-301.18v470.3h296.46v-42.45h-248.62v-159.01h237.17z"/><path d="m2456.49 1420.91h108.48c77.48 0 112.52 28.97 112.52 86.91 0 54.58-35.04 85.57-103.76 85.57h-117.24zm0-41.78v-214.26h-48.51v470.3h175.86c94.33 0 144.18-51.21 144.18-124.65 0-60.64-35.03-98.37-84.22-110.5 43.8-10.78 76.81-41.1 76.81-121.96v-18.86c0-32.34-2.69-75.47 6.07-94.33h-47.84c-8.76 20.21-7.41 57.27-7.41 99.72v10.78c0 72.77-20.89 103.76-108.48 103.76z"/></g><g fill="#004d73"><path d="m2954.27 1423.6h55.92c38.4 0 65.36 16.17 65.36 54.58 0 39.75-27.63 55.25-65.36 55.25h-55.92zm-134.09 205.51h214.94c105.11 0 175.18-58.63 175.18-148.91 0-104.44-80.18-152.27-177.88-152.27h-78.15v-163.06h-134.09z"/><path d="m3464.02 1356.22c-21.56 72.77-39.75 137.45-49.86 182.6h-2.02c-10.78-49.86-28.97-115.89-47.16-182.6zm-121.95-101.07-26.95-90.28h-132.06l146.88 464.24h175.86l152.27-464.24h-142.16l-28.31 90.28z"/><path d="m3801.65 1305.69c8.08-40.43 36.38-57.95 80.18-57.95 41.1 0 59.96 14.83 59.96 41.78 0 30.32-20.21 41.77-93.65 59.29-136.78 33.01-164.41 82.88-164.41 145.54 0 78.15 57.28 143.51 186.64 143.51 134.08 0 189.33-68.72 195.4-141.49h-131.39c-3.37 24.93-16.17 49.86-64.68 49.86-31 0-49.86-11.46-49.86-36.39 0-25.6 16.84-35.03 88.26-52.55 142.84-35.71 171.82-87.59 171.82-153.62 0-86.92-67.38-147.56-203.49-147.56-128.69 0-196.74 59.97-206.84 149.58z"/><path d="m4249.51 1305.69c8.08-40.43 36.38-57.95 80.18-57.95 41.1 0 59.97 14.83 59.97 41.78 0 30.32-20.22 41.77-93.66 59.29-136.78 33.01-164.4 82.88-164.4 145.54 0 78.15 57.27 143.51 186.63 143.51 134.09 0 189.34-68.72 195.4-141.49h-131.39c-3.37 24.93-16.17 49.86-64.68 49.86-30.99 0-49.86-11.46-49.86-36.39 0-25.6 16.84-35.03 88.27-52.55 142.84-35.71 171.81-87.59 171.81-153.62 0-86.92-67.38-147.56-203.48-147.56-128.69 0-196.75 59.97-206.85 149.58z"/><path d="m1666.22 643.77h-114.13v-88.52h125.15l-3.24-20.418h-144.93v226.297h142.66v-20.418h-119.64v-76.52h114.13z"/><path d="m1711.08 534.832v226.297h32.1c34.04-53.82 111.2-173.777 124.82-198.418h.33c-1.95 31.129-1.62 65.488-1.62 102.461v95.957h22.37v-226.297h-29.83c-32.1 50.898-111.21 177.668-126.45 202.957h-.64c1.61-27.879 1.61-63.551 1.61-104.398v-98.559z"/><path d="m2080.91 643.77h-114.13v-88.52h125.15l-3.24-20.418h-144.93v226.297h142.66v-20.418h-119.64v-76.52h114.13z"/><path d="m2149.11 658.031h52.2c37.29 0 54.15 13.938 54.15 41.828 0 26.262-16.86 41.172-49.94 41.172h-56.41zm0-20.101v-103.098h-23.34v226.297h84.62c45.39 0 69.38-24.641 69.38-59.981 0-29.179-16.86-47.328-40.52-53.168 21.07-5.191 36.96-19.781 36.96-58.679v-9.082c0-15.559-1.3-36.321 2.91-45.387h-23.01c-4.22 9.719-3.57 27.559-3.57 47.977v5.191c0 35.02-10.05 49.93-52.2 49.93z"/><path d="m2504.41 534.832h-18.48c-1.3 3.238-1.95 14.258-2.27 33.719-9.08-15.891-27.56-36.641-71.98-36.641-65.17 0-98.89 49.61-98.89 114.129 0 67.43 35.99 118.34 103.43 118.34 50.58 0 83-26.91 89.81-68.09h-23.02c-8.75 29.18-29.18 47.992-67.44 47.992-54.79 0-78.46-43.133-78.46-97.269 0-49.282 23.02-94.68 76.52-94.68 54.14 0 68.41 35.348 68.41 80.09v2.59h-69.06v20.429h91.43z"/><path d="m2577.44 761.129v-226.297h-23.02v226.297z"/><path d="m2768.63 643.77h-114.12v-88.52h125.15l-3.25-20.418h-144.92v226.297h142.65v-20.418h-119.63v-76.52h114.12z"/><path d="m2938.41 628.852c-23.67 63.867-35.99 95.648-40.53 111.859h-.32c-5.51-18.16-19.78-57.391-38.58-111.859zm-86.24-20.422-26.91-73.598h-23.34l82.02 226.297h28.21l85.27-226.297h-24.97l-27.23 73.598z"/><path d="m3040.4 761.129v-136.82c0-57.059 31.77-71.977 62.58-71.977 35.98 0 62.25 15.566 62.25 71.977v136.82h23.34v-135.52c0-71.98-38.91-93.379-86.24-93.379-45.72 0-85.6 23.352-85.6 90.79v138.109z"/><path d="m3247.79 596.75c6.49-28.852 25.61-45.391 60.95-45.391 38.59 0 53.5 18.813 53.5 42.153 0 24.32-11.02 38.59-59.01 50.258-50.25 12.64-70.03 29.179-70.03 61.601 0 31.449 23.02 59.008 72.63 59.008 51.55 0 73.27-30.809 76.19-59.34h-23.67c-4.86 22.383-19.13 39.563-53.5 39.563-30.47 0-47.33-13.942-47.33-37.614 0-23.019 13.94-32.097 54.79-42.148 64.2-15.891 74.57-41.168 74.57-69.379 0-34.699-25.61-63.231-79.43-63.231-56.74 0-79.11 32.102-83.65 64.52z"/><path d="m3464.62 534.832-61.93 226.297h24.32c16.21-63.219 46.04-174.098 50.9-200.367h.33c4.86 24.648 39.55 141.367 54.79 200.367h23.67c14.26-53.168 48.31-177.988 52.52-199.719h.33c7.13 35.34 42.14 149.149 56.41 199.719h23.02l-67.76-226.297h-25.62c-14.26 52.848-46.68 173.457-51.22 196.148h-.33c-6.48-31.449-38.58-141.679-54.14-196.148z"/><path d="m3858.47 643.77h-114.13v-88.52h125.15l-3.24-20.418h-144.93v226.297h142.66v-20.418h-119.64v-76.52h114.13z"/><path d="m3926.35 761.129v-226.297h-23.02v226.297z"/><path d="m3989.01 596.75c6.49-28.852 25.62-45.391 60.96-45.391 38.58 0 53.49 18.813 53.49 42.153 0 24.32-11.02 38.59-59.01 50.258-50.25 12.64-70.03 29.179-70.03 61.601 0 31.449 23.02 59.008 72.63 59.008 51.55 0 73.27-30.809 76.19-59.34h-23.67c-4.86 22.383-19.13 39.563-53.49 39.563-30.48 0-47.34-13.942-47.34-37.614 0-23.019 13.94-32.097 54.79-42.148 64.2-15.891 74.57-41.168 74.57-69.379 0-34.699-25.61-63.231-79.43-63.231-56.74 0-79.11 32.102-83.65 64.52z"/><path d="m4235.38 660.301v-20.422h-83.33v20.422z"/><path d="m4300.35 658.031h52.2c37.28 0 54.14 13.938 54.14 41.828 0 26.262-16.86 41.172-49.93 41.172h-56.41zm0-20.101v-103.098h-23.35v226.297h84.63c45.39 0 69.38-24.641 69.38-59.981 0-29.179-16.86-47.328-40.53-53.168 21.07-5.191 36.96-19.781 36.96-58.679v-9.082c0-15.559-1.29-36.321 2.92-45.387h-23.02c-4.21 9.719-3.57 27.559-3.57 47.977v5.191c0 35.02-10.05 49.93-52.2 49.93z"/><path d="m4615.15 643.77h-114.12v-88.52h125.15l-3.24-20.418h-144.93v226.297h142.66v-20.418h-119.64v-76.52h114.12z"/><path d="m4835.84 597.082c-10.7-37.293-37.94-64.852-87.54-64.852-66.14 0-100.19 51.559-100.19 115.43 0 61.27 33.72 116.719 100.83 116.719 50.91 0 79.77-28.527 86.9-66.469h-23.02c-9.4 27.231-27.24 46.371-64.85 46.371-53.49 0-75.54-48.64-75.54-96.301 0-46.691 21.4-95.648 76.84-95.648 35.99 0 53.17 19.457 63.22 44.75z"/><path d="m4874.92 761.129h23.02v-96.609h127.75v96.609h23.34v-226.297h-23.34v109.258h-127.75v-109.258h-23.02z"/><path d="m5103.58 534.832v226.297h32.1c34.04-53.82 111.21-173.777 124.83-198.418h.32c-1.95 31.129-1.62 65.488-1.62 102.461v95.957h22.37v-226.297h-29.83c-32.09 50.898-111.21 177.668-126.44 202.957h-.65c1.62-27.879 1.62-63.551 1.62-104.398v-98.559z"/><path d="m5473.41 643.77h-114.13v-88.52h125.15l-3.24-20.418h-144.93v226.297h142.66v-20.418h-119.64v-76.52h114.13z"/><path d="m5541.62 658.031h52.19c37.29 0 54.15 13.938 54.15 41.828 0 26.262-16.86 41.172-49.93 41.172h-56.41zm0-20.101v-103.098h-23.35v226.297h84.62c45.39 0 69.39-24.641 69.39-59.981 0-29.179-16.86-47.328-40.53-53.168 21.07-5.191 36.96-19.781 36.96-58.679v-9.082c0-15.559-1.3-36.321 2.92-45.387h-23.02c-4.22 9.719-3.57 27.559-3.57 47.977v5.191c0 35.02-10.05 49.93-52.2 49.93z"/></g><path d="m1179.88 534.832 118.01 228.027 118.02-228.027z" fill="#80cc28"/><g clip-path="url(#a)"><path d="m3117.69 896.5h671.43v134.5h-671.43z" fill="url(#b)"/></g><g clip-path="url(#c)"><path d="m2497.81 896.5h591.91v134.5h-591.91z" fill="url(#b)"/></g><g clip-path="url(#d)"><path d="m1990.21 896.5h479.63v134.5h-479.63z" fill="url(#b)"/></g><g clip-path="url(#e)"><path d="m1099 896.5h400.09v134.5h-400.09z" fill="url(#b)"/></g><g clip-path="url(#f)"><path d="m534.848 896.5h536.182v134.5h-536.182z" fill="url(#b)"/></g><g clip-path="url(#g)"><path d="m1527.06 896.5h435.18v134.5h-435.18z" fill="url(#b)"/></g><g clip-path="url(#h)"><path d="m3817.09 896.5h701.85v134.5h-701.85z" fill="url(#b)"/></g><g clip-path="url(#i)"><path d="m4546.91 896.5h795.41v134.5h-795.41z" fill="url(#b)"/></g><g clip-path="url(#j)"><path d="m5370.29 1031v-134.5h300.67v134.5z" fill="url(#b)"/></g></g></svg>
